<svg width="49" height="24" viewBox="0 0 49 24" fill="none" xmlns="http://www.w3.org/2000/svg">
<g filter="url(#filter0_d_1_3758)">
<path d="M7.96113 11.5605C8.0678 12.1472 8.3078 12.6005 8.68113 12.9205C9.0678 13.2272 9.58113 13.3805 10.2211 13.3805C11.0478 13.3805 11.6478 13.0405 12.0211 12.3605C12.3945 11.6672 12.5811 10.5072 12.5811 8.88052C12.2745 9.30719 11.8411 9.64052 11.2811 9.88052C10.7345 10.1205 10.1411 10.2405 9.50113 10.2405C8.6478 10.2405 7.87447 10.0672 7.18113 9.72052C6.50113 9.36052 5.96113 8.83386 5.56113 8.14052C5.16113 7.43386 4.96113 6.58052 4.96113 5.58052C4.96113 4.10052 5.40113 2.92719 6.28113 2.06052C7.16113 1.18052 8.36113 0.740521 9.88113 0.740521C11.7745 0.740521 13.1078 1.34719 13.8811 2.56052C14.6678 3.77386 15.0611 5.60052 15.0611 8.04052C15.0611 9.77386 14.9078 11.1939 14.6011 12.3005C14.3078 13.4072 13.7945 14.2472 13.0611 14.8205C12.3411 15.3939 11.3545 15.6805 10.1011 15.6805C9.11447 15.6805 8.27447 15.4939 7.58113 15.1205C6.8878 14.7339 6.35447 14.2339 5.98113 13.6205C5.62113 12.9939 5.41447 12.3072 5.36113 11.5605H7.96113ZM10.0811 7.96052C10.7745 7.96052 11.3211 7.74719 11.7211 7.32052C12.1211 6.89386 12.3211 6.32052 12.3211 5.60052C12.3211 4.81386 12.1078 4.20719 11.6811 3.78052C11.2678 3.34052 10.7011 3.12052 9.98113 3.12052C9.26113 3.12052 8.6878 3.34719 8.26113 3.80052C7.8478 4.24052 7.64113 4.82719 7.64113 5.56052C7.64113 6.26719 7.84113 6.84719 8.24113 7.30052C8.65447 7.74052 9.2678 7.96052 10.0811 7.96052ZM27.0407 3.50052H20.5607V6.92052C20.8407 6.57386 21.2407 6.29386 21.7607 6.08052C22.2807 5.85386 22.834 5.74052 23.4207 5.74052C24.4873 5.74052 25.3607 5.97386 26.0407 6.44052C26.7207 6.90719 27.214 7.50719 27.5207 8.24052C27.8273 8.96052 27.9807 9.73386 27.9807 10.5605C27.9807 12.0939 27.5407 13.3272 26.6607 14.2605C25.794 15.1939 24.554 15.6605 22.9407 15.6605C21.4207 15.6605 20.2073 15.2805 19.3007 14.5205C18.394 13.7605 17.8807 12.7672 17.7607 11.5405H20.4807C20.6007 12.0739 20.8673 12.5005 21.2807 12.8205C21.7073 13.1405 22.2473 13.3005 22.9007 13.3005C23.6873 13.3005 24.2807 13.0539 24.6807 12.5605C25.0807 12.0672 25.2807 11.4139 25.2807 10.6005C25.2807 9.77386 25.074 9.14719 24.6607 8.72052C24.2607 8.28052 23.6673 8.06052 22.8807 8.06052C22.3207 8.06052 21.854 8.20052 21.4807 8.48052C21.1073 8.76052 20.8407 9.13386 20.6807 9.60052H18.0007V1.04052H27.0407V3.50052ZM29.7918 4.66052C29.7918 3.64719 30.0851 2.85385 30.6718 2.28052C31.2718 1.70719 32.0384 1.42052 32.9718 1.42052C33.9051 1.42052 34.6651 1.70719 35.2518 2.28052C35.8518 2.85385 36.1518 3.64719 36.1518 4.66052C36.1518 5.68719 35.8518 6.48719 35.2518 7.06052C34.6651 7.63386 33.9051 7.92052 32.9718 7.92052C32.0384 7.92052 31.2718 7.63386 30.6718 7.06052C30.0851 6.48719 29.7918 5.68719 29.7918 4.66052ZM42.6318 1.66052L34.7718 15.6605H32.0518L39.8918 1.66052H42.6318ZM32.9518 3.10052C32.2184 3.10052 31.8518 3.62052 31.8518 4.66052C31.8518 5.71386 32.2184 6.24052 32.9518 6.24052C33.3118 6.24052 33.5918 6.11386 33.7918 5.86052C33.9918 5.59386 34.0918 5.19386 34.0918 4.66052C34.0918 3.62052 33.7118 3.10052 32.9518 3.10052ZM38.5718 12.6405C38.5718 11.6139 38.8651 10.8205 39.4518 10.2605C40.0518 9.68719 40.8184 9.40052 41.7518 9.40052C42.6851 9.40052 43.4384 9.68719 44.0118 10.2605C44.5984 10.8205 44.8918 11.6139 44.8918 12.6405C44.8918 13.6672 44.5984 14.4672 44.0118 15.0405C43.4384 15.6139 42.6851 15.9005 41.7518 15.9005C40.8051 15.9005 40.0384 15.6139 39.4518 15.0405C38.8651 14.4672 38.5718 13.6672 38.5718 12.6405ZM41.7318 11.0805C40.9718 11.0805 40.5918 11.6005 40.5918 12.6405C40.5918 13.6939 40.9718 14.2205 41.7318 14.2205C42.4784 14.2205 42.8518 13.6939 42.8518 12.6405C42.8518 11.6005 42.4784 11.0805 41.7318 11.0805Z" fill="white"/>
</g>
<defs>
<filter id="filter0_d_1_3758" x="0.960938" y="0.740479" width="47.9307" height="23.16" filterUnits="userSpaceOnUse" color-interpolation-filters="sRGB">
<feFlood flood-opacity="0" result="BackgroundImageFix"/>
<feColorMatrix in="SourceAlpha" type="matrix" values="0 0 0 0 0 0 0 0 0 0 0 0 0 0 0 0 0 0 127 0" result="hardAlpha"/>
<feOffset dy="4"/>
<feGaussianBlur stdDeviation="2"/>
<feComposite in2="hardAlpha" operator="out"/>
<feColorMatrix type="matrix" values="0 0 0 0 0 0 0 0 0 0 0 0 0 0 0 0 0 0 0.25 0"/>
<feBlend mode="normal" in2="BackgroundImageFix" result="effect1_dropShadow_1_3758"/>
<feBlend mode="normal" in="SourceGraphic" in2="effect1_dropShadow_1_3758" result="shape"/>
</filter>
</defs>
</svg>
