<svg width="238" height="80" viewBox="0 0 238 80" fill="none" xmlns="http://www.w3.org/2000/svg">
<circle cx="39.6607" cy="39.6607" r="39.6607" fill="#37393F"/>
<path d="M38.6716 1.51307C48.3907 1.26106 57.8395 4.72822 65.0889 11.2067C72.3384 17.6852 76.8417 26.6864 77.6795 36.3726C78.5173 46.0588 75.6263 55.6996 69.5969 63.3266C63.5675 70.9536 54.8543 75.9916 45.2363 77.4122C35.6182 78.8327 25.8206 76.5285 17.8438 70.9701C9.86705 65.4117 4.31262 57.0183 2.31455 47.5034C0.316489 37.9886 2.02548 28.0698 7.09261 19.7723C12.1597 11.4748 20.2029 5.42417 29.5799 2.85583" stroke="#40DDB6" stroke-width="3" stroke-linecap="round" stroke-linejoin="round"/>
<path d="M23.9611 41.5605C24.0678 42.1472 24.3078 42.6005 24.6811 42.9205C25.0678 43.2272 25.5811 43.3805 26.2211 43.3805C27.0478 43.3805 27.6478 43.0405 28.0211 42.3605C28.3945 41.6672 28.5811 40.5072 28.5811 38.8805C28.2745 39.3072 27.8411 39.6405 27.2811 39.8805C26.7345 40.1205 26.1411 40.2405 25.5011 40.2405C24.6478 40.2405 23.8745 40.0672 23.1811 39.7205C22.5011 39.3605 21.9611 38.8339 21.5611 38.1405C21.1611 37.4339 20.9611 36.5805 20.9611 35.5805C20.9611 34.1005 21.4011 32.9272 22.2811 32.0605C23.1611 31.1805 24.3611 30.7405 25.8811 30.7405C27.7745 30.7405 29.1078 31.3472 29.8811 32.5605C30.6678 33.7739 31.0611 35.6005 31.0611 38.0405C31.0611 39.7739 30.9078 41.1939 30.6011 42.3005C30.3078 43.4072 29.7945 44.2472 29.0611 44.8205C28.3411 45.3939 27.3545 45.6805 26.1011 45.6805C25.1145 45.6805 24.2745 45.4939 23.5811 45.1205C22.8878 44.7339 22.3545 44.2339 21.9811 43.6205C21.6211 42.9939 21.4145 42.3072 21.3611 41.5605H23.9611ZM26.0811 37.9605C26.7745 37.9605 27.3211 37.7472 27.7211 37.3205C28.1211 36.8939 28.3211 36.3205 28.3211 35.6005C28.3211 34.8139 28.1078 34.2072 27.6811 33.7805C27.2678 33.3405 26.7011 33.1205 25.9811 33.1205C25.2611 33.1205 24.6878 33.3472 24.2611 33.8005C23.8478 34.2405 23.6411 34.8272 23.6411 35.5605C23.6411 36.2672 23.8411 36.8472 24.2411 37.3005C24.6545 37.7405 25.2678 37.9605 26.0811 37.9605ZM43.0407 33.5005H36.5607V36.9205C36.8407 36.5739 37.2407 36.2939 37.7607 36.0805C38.2807 35.8539 38.834 35.7405 39.4207 35.7405C40.4873 35.7405 41.3607 35.9739 42.0407 36.4405C42.7207 36.9072 43.214 37.5072 43.5207 38.2405C43.8273 38.9605 43.9807 39.7339 43.9807 40.5605C43.9807 42.0939 43.5407 43.3272 42.6607 44.2605C41.794 45.1939 40.554 45.6605 38.9407 45.6605C37.4207 45.6605 36.2073 45.2805 35.3007 44.5205C34.394 43.7605 33.8807 42.7672 33.7607 41.5405H36.4807C36.6007 42.0739 36.8673 42.5005 37.2807 42.8205C37.7073 43.1405 38.2473 43.3005 38.9007 43.3005C39.6873 43.3005 40.2807 43.0539 40.6807 42.5605C41.0807 42.0672 41.2807 41.4139 41.2807 40.6005C41.2807 39.7739 41.074 39.1472 40.6607 38.7205C40.2607 38.2805 39.6673 38.0605 38.8807 38.0605C38.3207 38.0605 37.854 38.2005 37.4807 38.4805C37.1073 38.7605 36.8407 39.1339 36.6807 39.6005H34.0007V31.0405H43.0407V33.5005ZM45.7918 34.6605C45.7918 33.6472 46.0851 32.8539 46.6718 32.2805C47.2718 31.7072 48.0384 31.4205 48.9718 31.4205C49.9051 31.4205 50.6651 31.7072 51.2518 32.2805C51.8518 32.8539 52.1518 33.6472 52.1518 34.6605C52.1518 35.6872 51.8518 36.4872 51.2518 37.0605C50.6651 37.6339 49.9051 37.9205 48.9718 37.9205C48.0384 37.9205 47.2718 37.6339 46.6718 37.0605C46.0851 36.4872 45.7918 35.6872 45.7918 34.6605ZM58.6318 31.6605L50.7718 45.6605H48.0518L55.8918 31.6605H58.6318ZM48.9518 33.1005C48.2184 33.1005 47.8518 33.6205 47.8518 34.6605C47.8518 35.7139 48.2184 36.2405 48.9518 36.2405C49.3118 36.2405 49.5918 36.1139 49.7918 35.8605C49.9918 35.5939 50.0918 35.1939 50.0918 34.6605C50.0918 33.6205 49.7118 33.1005 48.9518 33.1005ZM54.5718 42.6405C54.5718 41.6139 54.8651 40.8205 55.4518 40.2605C56.0518 39.6872 56.8184 39.4005 57.7518 39.4005C58.6851 39.4005 59.4384 39.6872 60.0118 40.2605C60.5984 40.8205 60.8918 41.6139 60.8918 42.6405C60.8918 43.6672 60.5984 44.4672 60.0118 45.0405C59.4384 45.6139 58.6851 45.9005 57.7518 45.9005C56.8051 45.9005 56.0384 45.6139 55.4518 45.0405C54.8651 44.4672 54.5718 43.6672 54.5718 42.6405ZM57.7318 41.0805C56.9718 41.0805 56.5918 41.6005 56.5918 42.6405C56.5918 43.6939 56.9718 44.2205 57.7318 44.2205C58.4784 44.2205 58.8518 43.6939 58.8518 42.6405C58.8518 41.6005 58.4784 41.0805 57.7318 41.0805Z" fill="white"/>
<path d="M102.094 23.6608H100.685C100.602 23.2555 100.456 22.8994 100.247 22.5926C100.043 22.2858 99.7929 22.0282 99.4974 21.8199C99.2058 21.6077 98.8819 21.4486 98.5258 21.3426C98.1698 21.2365 97.7986 21.1835 97.4122 21.1835C96.7077 21.1835 96.0694 21.3615 95.4974 21.7176C94.9292 22.0736 94.4766 22.5983 94.1395 23.2914C93.8061 23.9846 93.6395 24.835 93.6395 25.8426C93.6395 26.8502 93.8061 27.7005 94.1395 28.3937C94.4766 29.0869 94.9292 29.6115 95.4974 29.9676C96.0694 30.3236 96.7077 30.5017 97.4122 30.5017C97.7986 30.5017 98.1698 30.4486 98.5258 30.3426C98.8819 30.2365 99.2058 30.0793 99.4974 29.871C99.7929 29.6589 100.043 29.3994 100.247 29.0926C100.456 28.782 100.602 28.4259 100.685 28.0244H102.094C101.988 28.6191 101.795 29.1513 101.514 29.621C101.234 30.0907 100.886 30.4903 100.469 30.8199C100.052 31.1456 99.5845 31.3937 99.0656 31.5642C98.5505 31.7346 97.9993 31.8199 97.4122 31.8199C96.4198 31.8199 95.5372 31.5774 94.7645 31.0926C93.9917 30.6077 93.3838 29.9183 92.9406 29.0244C92.4974 28.1305 92.2758 27.0699 92.2758 25.8426C92.2758 24.6153 92.4974 23.5547 92.9406 22.6608C93.3838 21.7668 93.9917 21.0774 94.7645 20.5926C95.5372 20.1077 96.4198 19.8653 97.4122 19.8653C97.9993 19.8653 98.5505 19.9505 99.0656 20.121C99.5845 20.2914 100.052 20.5414 100.469 20.871C100.886 21.1968 101.234 21.5945 101.514 22.0642C101.795 22.5301 101.988 23.0623 102.094 23.6608ZM105.53 20.0244V31.6608H104.189V20.0244H105.53ZM107.986 31.6608V22.9335H109.327V31.6608H107.986ZM108.668 21.4789C108.407 21.4789 108.181 21.3899 107.992 21.2119C107.806 21.0339 107.713 20.8199 107.713 20.5699C107.713 20.3199 107.806 20.1058 107.992 19.9278C108.181 19.7498 108.407 19.6608 108.668 19.6608C108.929 19.6608 109.153 19.7498 109.338 19.9278C109.528 20.1058 109.622 20.3199 109.622 20.5699C109.622 20.8199 109.528 21.0339 109.338 21.2119C109.153 21.3899 108.929 21.4789 108.668 21.4789ZM115.442 31.8426C114.601 31.8426 113.876 31.657 113.266 31.2858C112.66 30.9108 112.192 30.388 111.862 29.7176C111.537 29.0433 111.374 28.2593 111.374 27.3653C111.374 26.4714 111.537 25.6835 111.862 25.0017C112.192 24.3161 112.65 23.782 113.237 23.3994C113.828 23.013 114.518 22.8199 115.306 22.8199C115.76 22.8199 116.209 22.8956 116.652 23.0471C117.095 23.1986 117.499 23.4449 117.862 23.7858C118.226 24.1229 118.516 24.5699 118.732 25.1267C118.948 25.6835 119.056 26.3691 119.056 27.1835V27.7517H112.328V26.5926H117.692C117.692 26.1002 117.594 25.6608 117.397 25.2744C117.203 24.888 116.927 24.5831 116.567 24.3596C116.211 24.1361 115.791 24.0244 115.306 24.0244C114.772 24.0244 114.309 24.157 113.919 24.4221C113.533 24.6835 113.236 25.0244 113.027 25.4449C112.819 25.8653 112.715 26.3161 112.715 26.7971V27.5699C112.715 28.2289 112.828 28.7877 113.056 29.246C113.287 29.7005 113.607 30.0471 114.016 30.2858C114.425 30.5206 114.9 30.638 115.442 30.638C115.794 30.638 116.112 30.5888 116.397 30.4903C116.684 30.388 116.933 30.2365 117.141 30.0358C117.349 29.8312 117.51 29.5774 117.624 29.2744L118.919 29.638C118.783 30.0774 118.554 30.4638 118.232 30.7971C117.91 31.1267 117.512 31.3843 117.039 31.5699C116.565 31.7517 116.033 31.8426 115.442 31.8426ZM122.436 26.4108V31.6608H121.095V22.9335H122.391V24.2971H122.505C122.709 23.8539 123.02 23.4979 123.436 23.2289C123.853 22.9562 124.391 22.8199 125.05 22.8199C125.641 22.8199 126.158 22.9411 126.601 23.1835C127.044 23.4221 127.389 23.7858 127.635 24.2744C127.881 24.7593 128.005 25.3729 128.005 26.1153V31.6608H126.664V26.2062C126.664 25.5206 126.486 24.9865 126.13 24.6039C125.773 24.2176 125.285 24.0244 124.664 24.0244C124.236 24.0244 123.853 24.1172 123.516 24.3028C123.183 24.4884 122.919 24.7593 122.726 25.1153C122.533 25.4714 122.436 25.9032 122.436 26.4108ZM134.25 22.9335V24.0699H129.728V22.9335H134.25ZM131.046 20.8426H132.387V29.1608C132.387 29.5396 132.442 29.8236 132.551 30.013C132.665 30.1986 132.809 30.3236 132.983 30.388C133.161 30.4486 133.349 30.4789 133.546 30.4789C133.693 30.4789 133.815 30.4714 133.909 30.4562C134.004 30.4373 134.08 30.4221 134.137 30.4108L134.409 31.6153C134.318 31.6494 134.192 31.6835 134.029 31.7176C133.866 31.7555 133.659 31.7744 133.409 31.7744C133.031 31.7744 132.659 31.693 132.296 31.5301C131.936 31.3672 131.637 31.1191 131.398 30.7858C131.163 30.4524 131.046 30.032 131.046 29.5244V20.8426ZM142.293 24.888L141.088 25.2289C141.013 25.0282 140.901 24.8331 140.753 24.6437C140.609 24.4505 140.412 24.2914 140.162 24.1664C139.912 24.0414 139.592 23.9789 139.202 23.9789C138.668 23.9789 138.223 24.1021 137.867 24.3483C137.514 24.5907 137.338 24.8994 137.338 25.2744C137.338 25.6077 137.46 25.871 137.702 26.0642C137.944 26.2574 138.323 26.4183 138.838 26.5471L140.134 26.8653C140.914 27.0547 141.496 27.3445 141.878 27.7346C142.261 28.121 142.452 28.6191 142.452 29.2289C142.452 29.7289 142.308 30.1759 142.02 30.5699C141.736 30.9638 141.338 31.2744 140.827 31.5017C140.316 31.7289 139.721 31.8426 139.043 31.8426C138.153 31.8426 137.416 31.6494 136.833 31.263C136.249 30.8767 135.88 30.3123 135.725 29.5699L136.997 29.2517C137.119 29.7214 137.348 30.0736 137.685 30.3085C138.026 30.5433 138.471 30.6608 139.02 30.6608C139.645 30.6608 140.141 30.5282 140.509 30.263C140.88 29.9941 141.066 29.6721 141.066 29.2971C141.066 28.9941 140.96 28.7403 140.747 28.5358C140.535 28.3274 140.21 28.1721 139.77 28.0699L138.316 27.7289C137.516 27.5396 136.929 27.246 136.554 26.8483C136.183 26.4468 135.997 25.9449 135.997 25.3426C135.997 24.8502 136.136 24.4146 136.412 24.0358C136.693 23.657 137.073 23.3596 137.554 23.1437C138.039 22.9278 138.588 22.8199 139.202 22.8199C140.066 22.8199 140.744 23.0093 141.236 23.388C141.732 23.7668 142.085 24.2668 142.293 24.888Z" fill="white"/>
<path d="M101.923 59.8748L100.015 57.5888C99.4873 57.7208 98.9473 57.7868 98.3953 57.7868C97.2193 57.7868 96.1393 57.5108 95.1553 56.9588C94.1713 56.4068 93.3913 55.6448 92.8153 54.6728C92.2393 53.6888 91.9513 52.5788 91.9513 51.3428C91.9513 50.1188 92.2393 49.0208 92.8153 48.0488C93.3913 47.0648 94.1713 46.2968 95.1553 45.7448C96.1393 45.1928 97.2193 44.9168 98.3953 44.9168C99.5833 44.9168 100.663 45.1928 101.635 45.7448C102.619 46.2968 103.393 47.0648 103.957 48.0488C104.533 49.0208 104.821 50.1188 104.821 51.3428C104.821 52.4588 104.581 53.4788 104.101 54.4028C103.633 55.3148 102.991 56.0588 102.175 56.6348L105.055 59.8748H101.923ZM94.5433 51.3428C94.5433 52.1828 94.7053 52.9208 95.0293 53.5568C95.3533 54.1928 95.8033 54.6848 96.3793 55.0328C96.9673 55.3688 97.6393 55.5368 98.3953 55.5368C99.1513 55.5368 99.8173 55.3688 100.393 55.0328C100.969 54.6848 101.419 54.1928 101.743 53.5568C102.067 52.9208 102.229 52.1828 102.229 51.3428C102.229 50.5028 102.067 49.7708 101.743 49.1468C101.419 48.5108 100.969 48.0248 100.393 47.6888C99.8173 47.3528 99.1513 47.1848 98.3953 47.1848C97.6393 47.1848 96.9673 47.3528 96.3793 47.6888C95.8033 48.0248 95.3533 48.5108 95.0293 49.1468C94.7053 49.7708 94.5433 50.5028 94.5433 51.3428ZM116.145 47.6888V57.6608H113.607V56.4008C113.283 56.8328 112.857 57.1748 112.329 57.4268C111.813 57.6668 111.249 57.7868 110.637 57.7868C109.857 57.7868 109.167 57.6248 108.567 57.3008C107.967 56.9648 107.493 56.4788 107.145 55.8428C106.809 55.1948 106.641 54.4268 106.641 53.5388V47.6888H109.161V53.1788C109.161 53.9708 109.359 54.5828 109.755 55.0148C110.151 55.4348 110.691 55.6448 111.375 55.6448C112.071 55.6448 112.617 55.4348 113.013 55.0148C113.409 54.5828 113.607 53.9708 113.607 53.1788V47.6888H116.145ZM119.91 46.5008C119.466 46.5008 119.094 46.3628 118.794 46.0868C118.506 45.7988 118.362 45.4448 118.362 45.0248C118.362 44.6048 118.506 44.2568 118.794 43.9808C119.094 43.6928 119.466 43.5488 119.91 43.5488C120.354 43.5488 120.72 43.6928 121.008 43.9808C121.308 44.2568 121.458 44.6048 121.458 45.0248C121.458 45.4448 121.308 45.7988 121.008 46.0868C120.72 46.3628 120.354 46.5008 119.91 46.5008ZM121.152 47.6888V57.6608H118.632V47.6888H121.152ZM122.993 52.6748C122.993 51.6428 123.203 50.7428 123.623 49.9748C124.043 49.1948 124.625 48.5948 125.369 48.1748C126.113 47.7428 126.965 47.5268 127.925 47.5268C129.161 47.5268 130.181 47.8388 130.985 48.4628C131.801 49.0748 132.347 49.9388 132.623 51.0548H129.905C129.761 50.6228 129.515 50.2868 129.167 50.0468C128.831 49.7948 128.411 49.6688 127.907 49.6688C127.187 49.6688 126.617 49.9328 126.197 50.4608C125.777 50.9768 125.567 51.7148 125.567 52.6748C125.567 53.6228 125.777 54.3608 126.197 54.8888C126.617 55.4048 127.187 55.6628 127.907 55.6628C128.927 55.6628 129.593 55.2068 129.905 54.2948H132.623C132.347 55.3748 131.801 56.2328 130.985 56.8688C130.169 57.5048 129.149 57.8228 127.925 57.8228C126.965 57.8228 126.113 57.6128 125.369 57.1928C124.625 56.7608 124.043 56.1608 123.623 55.3928C123.203 54.6128 122.993 53.7068 122.993 52.6748ZM140.374 57.6608L136.99 53.4128V57.6608H134.47V44.3408H136.99V51.9188L140.338 47.6888H143.614L139.222 52.6928L143.65 57.6608H140.374ZM155.75 57.6608L152.978 52.7648H151.79V57.6608H149.27V45.0968H153.986C154.958 45.0968 155.786 45.2708 156.47 45.6188C157.154 45.9548 157.664 46.4168 158 47.0048C158.348 47.5808 158.522 48.2288 158.522 48.9488C158.522 49.7768 158.282 50.5268 157.802 51.1988C157.322 51.8588 156.608 52.3148 155.66 52.5668L158.666 57.6608H155.75ZM151.79 50.8748H153.896C154.58 50.8748 155.09 50.7128 155.426 50.3888C155.762 50.0528 155.93 49.5908 155.93 49.0028C155.93 48.4268 155.762 47.9828 155.426 47.6708C155.09 47.3468 154.58 47.1848 153.896 47.1848H151.79V50.8748ZM170.072 52.4588C170.072 52.8188 170.048 53.1428 170 53.4308H162.71C162.77 54.1508 163.022 54.7148 163.466 55.1228C163.91 55.5308 164.456 55.7348 165.104 55.7348C166.04 55.7348 166.706 55.3328 167.102 54.5288H169.82C169.532 55.4888 168.98 56.2808 168.164 56.9048C167.348 57.5168 166.346 57.8228 165.158 57.8228C164.198 57.8228 163.334 57.6128 162.566 57.1928C161.81 56.7608 161.216 56.1548 160.784 55.3748C160.364 54.5948 160.154 53.6948 160.154 52.6748C160.154 51.6428 160.364 50.7368 160.784 49.9568C161.204 49.1768 161.792 48.5768 162.548 48.1568C163.304 47.7368 164.174 47.5268 165.158 47.5268C166.106 47.5268 166.952 47.7308 167.696 48.1388C168.452 48.5468 169.034 49.1288 169.442 49.8848C169.862 50.6288 170.072 51.4868 170.072 52.4588ZM167.462 51.7388C167.45 51.0908 167.216 50.5748 166.76 50.1908C166.304 49.7948 165.746 49.5968 165.086 49.5968C164.462 49.5968 163.934 49.7888 163.502 50.1728C163.082 50.5448 162.824 51.0668 162.728 51.7388H167.462ZM175.727 57.8228C174.911 57.8228 174.179 57.6788 173.531 57.3908C172.883 57.0908 172.367 56.6888 171.983 56.1848C171.611 55.6808 171.407 55.1228 171.371 54.5108H173.909C173.957 54.8948 174.143 55.2128 174.467 55.4648C174.803 55.7168 175.217 55.8428 175.709 55.8428C176.189 55.8428 176.561 55.7468 176.825 55.5548C177.101 55.3628 177.239 55.1168 177.239 54.8168C177.239 54.4928 177.071 54.2528 176.735 54.0968C176.411 53.9288 175.889 53.7488 175.169 53.5568C174.425 53.3768 173.813 53.1908 173.333 52.9988C172.865 52.8068 172.457 52.5128 172.109 52.1168C171.773 51.7208 171.605 51.1868 171.605 50.5148C171.605 49.9628 171.761 49.4588 172.073 49.0028C172.397 48.5468 172.853 48.1868 173.441 47.9228C174.041 47.6588 174.743 47.5268 175.547 47.5268C176.735 47.5268 177.683 47.8268 178.391 48.4268C179.099 49.0148 179.489 49.8128 179.561 50.8208H177.149C177.113 50.4248 176.945 50.1128 176.645 49.8848C176.357 49.6448 175.967 49.5248 175.475 49.5248C175.019 49.5248 174.665 49.6088 174.413 49.7768C174.173 49.9448 174.053 50.1788 174.053 50.4788C174.053 50.8148 174.221 51.0728 174.557 51.2528C174.893 51.4208 175.415 51.5948 176.123 51.7748C176.843 51.9548 177.437 52.1408 177.905 52.3328C178.373 52.5248 178.775 52.8248 179.111 53.2328C179.459 53.6288 179.639 54.1568 179.651 54.8168C179.651 55.3928 179.489 55.9088 179.165 56.3648C178.853 56.8208 178.397 57.1808 177.797 57.4448C177.209 57.6968 176.519 57.8228 175.727 57.8228ZM184.24 49.1288C184.564 48.6728 185.008 48.2948 185.572 47.9948C186.148 47.6828 186.802 47.5268 187.534 47.5268C188.386 47.5268 189.154 47.7368 189.838 48.1568C190.534 48.5768 191.08 49.1768 191.476 49.9568C191.884 50.7248 192.088 51.6188 192.088 52.6388C192.088 53.6588 191.884 54.5648 191.476 55.3568C191.08 56.1368 190.534 56.7428 189.838 57.1748C189.154 57.6068 188.386 57.8228 187.534 57.8228C186.802 57.8228 186.154 57.6728 185.59 57.3728C185.038 57.0728 184.588 56.6948 184.24 56.2388V62.4128H181.72V47.6888H184.24V49.1288ZM189.514 52.6388C189.514 52.0388 189.388 51.5228 189.136 51.0908C188.896 50.6468 188.572 50.3108 188.164 50.0828C187.768 49.8548 187.336 49.7408 186.868 49.7408C186.412 49.7408 185.98 49.8608 185.572 50.1008C185.176 50.3288 184.852 50.6648 184.6 51.1088C184.36 51.5528 184.24 52.0748 184.24 52.6748C184.24 53.2748 184.36 53.7968 184.6 54.2408C184.852 54.6848 185.176 55.0268 185.572 55.2668C185.98 55.4948 186.412 55.6088 186.868 55.6088C187.336 55.6088 187.768 55.4888 188.164 55.2488C188.572 55.0088 188.896 54.6668 189.136 54.2228C189.388 53.7788 189.514 53.2508 189.514 52.6388ZM198.347 57.8228C197.387 57.8228 196.523 57.6128 195.755 57.1928C194.987 56.7608 194.381 56.1548 193.937 55.3748C193.505 54.5948 193.289 53.6948 193.289 52.6748C193.289 51.6548 193.511 50.7548 193.955 49.9748C194.411 49.1948 195.029 48.5948 195.809 48.1748C196.589 47.7428 197.459 47.5268 198.419 47.5268C199.379 47.5268 200.249 47.7428 201.029 48.1748C201.809 48.5948 202.421 49.1948 202.865 49.9748C203.321 50.7548 203.549 51.6548 203.549 52.6748C203.549 53.6948 203.315 54.5948 202.847 55.3748C202.391 56.1548 201.767 56.7608 200.975 57.1928C200.195 57.6128 199.319 57.8228 198.347 57.8228ZM198.347 55.6268C198.803 55.6268 199.229 55.5188 199.625 55.3028C200.033 55.0748 200.357 54.7388 200.597 54.2948C200.837 53.8508 200.957 53.3108 200.957 52.6748C200.957 51.7268 200.705 51.0008 200.201 50.4968C199.709 49.9808 199.103 49.7228 198.383 49.7228C197.663 49.7228 197.057 49.9808 196.565 50.4968C196.085 51.0008 195.845 51.7268 195.845 52.6748C195.845 53.6228 196.079 54.3548 196.547 54.8708C197.027 55.3748 197.627 55.6268 198.347 55.6268ZM210.923 47.5448C212.111 47.5448 213.071 47.9228 213.803 48.6788C214.535 49.4228 214.901 50.4668 214.901 51.8108V57.6608H212.381V52.1528C212.381 51.3608 212.183 50.7548 211.787 50.3348C211.391 49.9028 210.851 49.6868 210.167 49.6868C209.471 49.6868 208.919 49.9028 208.511 50.3348C208.115 50.7548 207.917 51.3608 207.917 52.1528V57.6608H205.397V47.6888H207.917V48.9308C208.253 48.4988 208.679 48.1628 209.195 47.9228C209.723 47.6708 210.299 47.5448 210.923 47.5448ZM221.114 57.8228C220.298 57.8228 219.566 57.6788 218.918 57.3908C218.27 57.0908 217.754 56.6888 217.37 56.1848C216.998 55.6808 216.794 55.1228 216.758 54.5108H219.296C219.344 54.8948 219.53 55.2128 219.854 55.4648C220.19 55.7168 220.604 55.8428 221.096 55.8428C221.576 55.8428 221.948 55.7468 222.212 55.5548C222.488 55.3628 222.626 55.1168 222.626 54.8168C222.626 54.4928 222.458 54.2528 222.122 54.0968C221.798 53.9288 221.276 53.7488 220.556 53.5568C219.812 53.3768 219.2 53.1908 218.72 52.9988C218.252 52.8068 217.844 52.5128 217.496 52.1168C217.16 51.7208 216.992 51.1868 216.992 50.5148C216.992 49.9628 217.148 49.4588 217.46 49.0028C217.784 48.5468 218.24 48.1868 218.828 47.9228C219.428 47.6588 220.13 47.5268 220.934 47.5268C222.122 47.5268 223.07 47.8268 223.778 48.4268C224.486 49.0148 224.876 49.8128 224.948 50.8208H222.536C222.5 50.4248 222.332 50.1128 222.032 49.8848C221.744 49.6448 221.354 49.5248 220.862 49.5248C220.406 49.5248 220.052 49.6088 219.8 49.7768C219.56 49.9448 219.44 50.1788 219.44 50.4788C219.44 50.8148 219.608 51.0728 219.944 51.2528C220.28 51.4208 220.802 51.5948 221.51 51.7748C222.23 51.9548 222.824 52.1408 223.292 52.3328C223.76 52.5248 224.162 52.8248 224.498 53.2328C224.846 53.6288 225.026 54.1568 225.038 54.8168C225.038 55.3928 224.876 55.9088 224.552 56.3648C224.24 56.8208 223.784 57.1808 223.184 57.4448C222.596 57.6968 221.906 57.8228 221.114 57.8228ZM236.376 52.4588C236.376 52.8188 236.352 53.1428 236.304 53.4308H229.014C229.074 54.1508 229.326 54.7148 229.77 55.1228C230.214 55.5308 230.76 55.7348 231.408 55.7348C232.344 55.7348 233.01 55.3328 233.406 54.5288H236.124C235.836 55.4888 235.284 56.2808 234.468 56.9048C233.652 57.5168 232.65 57.8228 231.462 57.8228C230.502 57.8228 229.638 57.6128 228.87 57.1928C228.114 56.7608 227.52 56.1548 227.088 55.3748C226.668 54.5948 226.458 53.6948 226.458 52.6748C226.458 51.6428 226.668 50.7368 227.088 49.9568C227.508 49.1768 228.096 48.5768 228.852 48.1568C229.608 47.7368 230.478 47.5268 231.462 47.5268C232.41 47.5268 233.256 47.7308 234 48.1388C234.756 48.5468 235.338 49.1288 235.746 49.8848C236.166 50.6288 236.376 51.4868 236.376 52.4588ZM233.766 51.7388C233.754 51.0908 233.52 50.5748 233.064 50.1908C232.608 49.7948 232.05 49.5968 231.39 49.5968C230.766 49.5968 230.238 49.7888 229.806 50.1728C229.386 50.5448 229.128 51.0668 229.032 51.7388H233.766Z" fill="white"/>
</svg>
