<svg width="153" height="21" viewBox="0 0 153 21" fill="none" xmlns="http://www.w3.org/2000/svg">
<path d="M25.5 2.825L21.275 20.5H15.975L13.15 8.675L10.3 20.5H5L0.775 2.825H5.425L7.7 15.625L10.8 2.825H15.475L18.575 15.625L20.875 2.825H25.5ZM36.5945 6.4C38.1945 6.4 39.4612 6.93333 40.3945 8C41.3445 9.06667 41.8195 10.5333 41.8195 12.4V20.5H37.5445V12.9C37.5445 11.9667 37.2945 11.2417 36.7945 10.725C36.3112 10.1917 35.6612 9.925 34.8445 9.925C33.9779 9.925 33.2862 10.2 32.7695 10.75C32.2695 11.3 32.0195 12.0833 32.0195 13.1V20.5H27.7445V2H32.0195V9.1C32.4195 8.26667 33.0112 7.60833 33.7945 7.125C34.5945 6.64167 35.5279 6.4 36.5945 6.4ZM44.2391 2.625C44.2391 1.975 44.4724 1.44167 44.9391 1.025C45.4057 0.591665 46.0224 0.374998 46.7891 0.374998C47.5557 0.374998 48.1724 0.591665 48.6391 1.025C49.1057 1.44167 49.3391 1.975 49.3391 2.625C49.3391 3.25833 49.1057 3.79167 48.6391 4.225C48.1724 4.64167 47.5557 4.85 46.7891 4.85C46.0224 4.85 45.4057 4.64167 44.9391 4.225C44.4724 3.79167 44.2391 3.25833 44.2391 2.625ZM48.9141 6.55V20.5H44.6391V6.55H48.9141ZM59.7656 16.825V20.5H57.8406C56.2073 20.5 54.9323 20.1 54.0156 19.3C53.1156 18.4833 52.6656 17.1417 52.6656 15.275V10.15H50.7906V6.55H52.6656V3.125H56.9406V6.55H59.7406V10.15H56.9406V15.35C56.9406 15.9 57.049 16.2833 57.2656 16.5C57.499 16.7167 57.8823 16.825 58.4156 16.825H59.7656ZM75.4184 13.15C75.4184 13.5 75.3767 13.8833 75.2934 14.3H65.6184C65.6684 15.35 65.935 16.1083 66.4184 16.575C66.9017 17.025 67.5184 17.25 68.2684 17.25C68.9017 17.25 69.4267 17.0917 69.8434 16.775C70.26 16.4583 70.535 16.05 70.6684 15.55H75.1934C75.01 16.5333 74.61 17.4167 73.9934 18.2C73.3767 18.9667 72.5934 19.575 71.6434 20.025C70.6934 20.4583 69.635 20.675 68.4684 20.675C67.1017 20.675 65.885 20.3917 64.8184 19.825C63.7684 19.2417 62.9434 18.4083 62.3434 17.325C61.7434 16.2417 61.4434 14.975 61.4434 13.525C61.4434 12.0583 61.735 10.7917 62.3184 9.725C62.9184 8.64167 63.7517 7.81667 64.8184 7.25C65.885 6.66667 67.1017 6.375 68.4684 6.375C69.8517 6.375 71.0684 6.65833 72.1184 7.225C73.1684 7.79167 73.9767 8.59167 74.5434 9.625C75.1267 10.6417 75.4184 11.8167 75.4184 13.15ZM71.0934 12.5C71.11 11.5833 70.86 10.9 70.3434 10.45C69.8434 9.98333 69.2184 9.75 68.4684 9.75C67.685 9.75 67.035 9.98333 66.5184 10.45C66.0017 10.9167 65.71 11.6 65.6434 12.5H71.0934ZM85.7219 2.65C87.9719 2.65 89.8302 3.24167 91.2969 4.425C92.7802 5.60833 93.7385 7.20833 94.1719 9.225H89.6469C89.3135 8.40833 88.7969 7.76667 88.0969 7.3C87.4135 6.83333 86.5969 6.6 85.6469 6.6C84.3969 6.6 83.3885 7.05833 82.6219 7.975C81.8552 8.89167 81.4719 10.1167 81.4719 11.65C81.4719 13.1833 81.8552 14.4083 82.6219 15.325C83.3885 16.225 84.3969 16.675 85.6469 16.675C86.5969 16.675 87.4135 16.4417 88.0969 15.975C88.7969 15.5083 89.3135 14.875 89.6469 14.075H94.1719C93.7385 16.075 92.7802 17.675 91.2969 18.875C89.8302 20.0583 87.9719 20.65 85.7219 20.65C84.0052 20.65 82.4969 20.275 81.1969 19.525C79.8969 18.7583 78.8885 17.6917 78.1719 16.325C77.4719 14.9583 77.1219 13.4 77.1219 11.65C77.1219 9.9 77.4719 8.34167 78.1719 6.975C78.8885 5.60833 79.8969 4.55 81.1969 3.8C82.4969 3.03333 84.0052 2.65 85.7219 2.65ZM103.093 6.375C104.476 6.375 105.709 6.66667 106.793 7.25C107.893 7.81667 108.751 8.64167 109.368 9.725C110.001 10.8083 110.318 12.075 110.318 13.525C110.318 14.975 110.001 16.2417 109.368 17.325C108.751 18.4083 107.893 19.2417 106.793 19.825C105.709 20.3917 104.476 20.675 103.093 20.675C101.709 20.675 100.468 20.3917 99.3678 19.825C98.2678 19.2417 97.4011 18.4083 96.7678 17.325C96.1511 16.2417 95.8428 14.975 95.8428 13.525C95.8428 12.075 96.1511 10.8083 96.7678 9.725C97.4011 8.64167 98.2678 7.81667 99.3678 7.25C100.468 6.66667 101.709 6.375 103.093 6.375ZM103.093 10.075C102.276 10.075 101.584 10.375 101.018 10.975C100.468 11.5583 100.193 12.4083 100.193 13.525C100.193 14.6417 100.468 15.4917 101.018 16.075C101.584 16.6583 102.276 16.95 103.093 16.95C103.909 16.95 104.593 16.6583 105.143 16.075C105.693 15.4917 105.968 14.6417 105.968 13.525C105.968 12.4083 105.693 11.5583 105.143 10.975C104.593 10.375 103.909 10.075 103.093 10.075ZM132.288 6.375C133.354 6.375 134.271 6.61667 135.038 7.1C135.804 7.58333 136.371 8.24167 136.738 9.075V6.55H140.988V20.5H136.738V17.975C136.371 18.8083 135.804 19.4667 135.038 19.95C134.271 20.4333 133.354 20.675 132.288 20.675C131.138 20.675 130.104 20.3917 129.188 19.825C128.288 19.2417 127.571 18.4083 127.038 17.325C126.521 16.2417 126.263 14.975 126.263 13.525C126.263 12.0583 126.521 10.7917 127.038 9.725C127.571 8.64167 128.288 7.81667 129.188 7.25C130.104 6.66667 131.138 6.375 132.288 6.375ZM133.663 10.125C132.746 10.125 132.004 10.425 131.438 11.025C130.888 11.625 130.613 12.4583 130.613 13.525C130.613 14.5917 130.888 15.425 131.438 16.025C132.004 16.625 132.746 16.925 133.663 16.925C134.563 16.925 135.296 16.6167 135.863 16C136.446 15.3833 136.738 14.5583 136.738 13.525C136.738 12.475 136.446 11.65 135.863 11.05C135.296 10.4333 134.563 10.125 133.663 10.125ZM148.206 9.175C148.739 8.325 149.423 7.65 150.256 7.15C151.106 6.65 152.023 6.4 153.006 6.4V10.975H151.781C150.648 10.975 149.764 11.2167 149.131 11.7C148.514 12.1833 148.206 13 148.206 14.15V20.5H143.931V6.55H148.206V9.175Z" fill="#37393F"/>
<path d="M116.81 2V20.5H112.535V2H116.81ZM124.036 2V20.5H119.761V2H124.036Z" fill="#6B77E5"/>
</svg>
